<?xml version="1.0" standalone="no"?>
<!DOCTYPE svg PUBLIC "-//W3C//DTD SVG 20010904//EN"
 "http://www.w3.org/TR/2001/REC-SVG-20010904/DTD/svg10.dtd">
<svg version="1.0" xmlns="http://www.w3.org/2000/svg"
 width="1500.000000pt" height="1500.000000pt" viewBox="0 0 1500.000000 1500.000000"
 preserveAspectRatio="xMidYMid meet">
<metadata>
Created by potrace 1.16, written by Peter Selinger 2001-2019
</metadata>
<g transform="translate(0.000000,1500.000000) scale(0.100000,-0.100000)"
fill="#000000" stroke="none">
<path d="M7055 14994 c-648 -48 -1197 -146 -1749 -314 -2018 -613 -3711 -2083
-4606 -3998 -368 -788 -586 -1594 -677 -2507 -26 -261 -26 -1089 0 -1350 91
-913 309 -1719 677 -2507 739 -1583 2035 -2879 3618 -3618 788 -368 1594 -586
2507 -677 261 -26 1089 -26 1350 0 913 91 1719 309 2507 677 1583 739 2879
2035 3618 3618 368 788 586 1594 677 2507 14 146 18 272 18 675 0 541 -7 650
-66 1065 -225 1581 -938 3031 -2056 4175 -1166 1194 -2664 1956 -4308 2189
-390 55 -512 63 -1005 66 -250 1 -477 1 -505 -1z m890 -1064 c1774 -131 3375
-952 4512 -2315 730 -875 1220 -1949 1402 -3075 62 -378 81 -627 81 -1040 0
-413 -19 -662 -81 -1040 -380 -2351 -2055 -4318 -4320 -5073 -508 -170 -1042
-276 -1594 -317 -180 -13 -710 -13 -890 0 -1774 131 -3377 953 -4512 2315
-912 1094 -1439 2479 -1481 3888 -12 406 7 781 59 1142 378 2644 2367 4793
4975 5375 293 65 640 116 939 139 162 12 748 13 910 1z"/>
<path d="M7280 13649 c-1431 -42 -2810 -597 -3889 -1566 -1016 -911 -1700
-2128 -1945 -3465 -112 -608 -129 -1324 -46 -1947 163 -1217 691 -2360 1517
-3280 979 -1092 2310 -1798 3754 -1991 517 -69 1141 -69 1658 0 2520 336 4590
2218 5166 4696 110 473 155 884 155 1404 0 421 -29 753 -96 1118 -247 1340
-928 2553 -1945 3465 -1102 989 -2509 1543 -3984 1570 -71 1 -227 -1 -345 -4z
m496 -5224 c1841 -2111 2035 -2330 2064 -2333 l32 -3 -5 1218 c-7 1380 -14
1595 -82 2232 -30 275 -51 373 -101 473 -114 227 -379 341 -874 376 l-105 7
-3 183 -2 182 1305 0 1305 0 -2 -182 -3 -183 -50 -3 c-95 -5 -266 -33 -352
-58 -241 -70 -372 -214 -423 -465 -19 -96 -71 -587 -90 -854 -27 -379 -30
-678 -30 -2923 l0 -2362 -257 2 -257 3 -2205 2642 c-1409 1687 -2213 2642
-2224 2642 -18 1 -18 -58 -14 -1626 4 -1665 6 -1737 48 -2243 37 -451 73 -575
203 -706 122 -121 343 -197 641 -219 44 -3 104 -8 133 -11 l52 -5 0 -180 0
-179 -1285 0 -1285 0 0 180 0 179 33 5 c17 3 75 10 127 17 194 23 352 75 465
150 113 76 180 169 224 314 38 122 104 723 133 1215 19 314 19 3372 0 3549
-32 302 -116 480 -313 666 -155 145 -390 230 -724 263 l-70 7 -3 183 -2 182
982 -2 982 -3 2032 -2330z"/>
</g>
</svg>
